{
	"asset":{
		"generator":"Khronos glTF Blender I/O v3.5.30",
		"version":"2.0"
	},
	"scene":0,
	"scenes":[
		{
			"name":"Scene",
			"nodes":[
				0,
				1,
				2,
				3
			]
		}
	],
	"nodes":[
		{
			"mesh":0,
			"name":"Cube",
			"rotation":[
				0,
				0,
				-0.9999269843101501,
				0.012086649425327778
			],
			"scale":[
				4.800000190734863,
				4.800000190734863,
				4.800000190734863
			],
			"translation":[
				2.6648426055908203,
				-0.3410828113555908,
				0
			]
		},
		{
			"mesh":1,
			"name":"Cube.001",
			"rotation":[
				0,
				0,
				-0.9999270439147949,
				0.012086651287972927
			],
			"scale":[
				4.36617374420166,
				6.917544841766357,
				4.36617374420166
			],
			"translation":[
				2.6987204551696777,
				1.268366813659668,
				-0.03340423107147217
			]
		},
		{
			"mesh":2,
			"name":"Plane",
			"rotation":[
				0,
				0,
				-0.9999269843101501,
				0.012086649425327778
			],
			"scale":[
				-4.812836647033691,
				-4.812836647033691,
				-4.812836647033691
			],
			"translation":[
				3.0667920112609863,
				2.081420421600342,
				0.30247342586517334
			]
		},
		{
			"mesh":3,
			"name":"Cube.002",
			"rotation":[
				0,
				0,
				-0.9999270439147949,
				0.012086651287972927
			],
			"scale":[
				5.3702311515808105,
				5.3702311515808105,
				5.3702311515808105
			],
			"translation":[
				2.6180129051208496,
				1.5957424640655518,
				0
			]
		}
	],
	"materials":[
		{
			"doubleSided":true,
			"name":"bunMaterial",
			"pbrMetallicRoughness":{
				"baseColorFactor":[
					0.8000000715255737,
					0.25661247968673706,
					0.02447778917849064,
					1
				],
				"metallicFactor":0
			}
		},
		{
			"doubleSided":true,
			"name":"meat",
			"pbrMetallicRoughness":{
				"baseColorFactor":[
					0.41494229435920715,
					0.07251304388046265,
					0.00853855349123478,
					1
				],
				"metallicFactor":0,
				"roughnessFactor":0.5
			}
		},
		{
			"doubleSided":true,
			"name":"queijo",
			"pbrMetallicRoughness":{
				"baseColorFactor":[
					0.8000000715255737,
					0.38188135623931885,
					0.013878965750336647,
					1
				],
				"metallicFactor":0,
				"roughnessFactor":0.25229358673095703
			}
		}
	],
	"meshes":[
		{
			"name":"Mesh",
			"primitives":[
				{
					"attributes":{
						"POSITION":0,
						"NORMAL":1
					},
					"indices":2,
					"material":0
				}
			]
		},
		{
			"name":"Mesh",
			"primitives":[
				{
					"attributes":{
						"POSITION":3,
						"NORMAL":4
					},
					"indices":2,
					"material":1
				}
			]
		},
		{
			"name":"Plane",
			"primitives":[
				{
					"attributes":{
						"POSITION":5,
						"NORMAL":6
					},
					"indices":7,
					"material":2
				}
			]
		},
		{
			"name":"Mesh",
			"primitives":[
				{
					"attributes":{
						"POSITION":8,
						"NORMAL":9
					},
					"indices":2,
					"material":0
				}
			]
		}
	],
	"accessors":[
		{
			"bufferView":0,
			"componentType":5126,
			"count":3586,
			"max":[
				0.8237730860710144,
				-0.06538965553045273,
				0.9686964154243469
			],
			"min":[
				-1.0095605850219727,
				-0.3754594624042511,
				-0.8646371960639954
			],
			"type":"VEC3"
		},
		{
			"bufferView":1,
			"componentType":5126,
			"count":3586,
			"type":"VEC3"
		},
		{
			"bufferView":2,
			"componentType":5123,
			"count":21504,
			"type":"SCALAR"
		},
		{
			"bufferView":3,
			"componentType":5126,
			"count":3586,
			"max":[
				0.8337535858154297,
				0.034471962600946426,
				0.9889031052589417
			],
			"min":[
				-1.003126621246338,
				-0.10549937933683395,
				-0.8466838598251343
			],
			"type":"VEC3"
		},
		{
			"bufferView":4,
			"componentType":5126,
			"count":3586,
			"type":"VEC3"
		},
		{
			"bufferView":5,
			"componentType":5126,
			"count":714,
			"max":[
				0.7723283767700195,
				0.007924201898276806,
				0.7723283767700195
			],
			"min":[
				-0.7723283767700195,
				-0.17282624542713165,
				-0.7723283767700195
			],
			"type":"VEC3"
		},
		{
			"bufferView":6,
			"componentType":5126,
			"count":714,
			"type":"VEC3"
		},
		{
			"bufferView":7,
			"componentType":5123,
			"count":3456,
			"type":"SCALAR"
		},
		{
			"bufferView":8,
			"componentType":5126,
			"count":3586,
			"max":[
				0.6958423852920532,
				-0.042476680129766464,
				0.839381992816925
			],
			"min":[
				-0.8788625001907349,
				-0.44726622104644775,
				-0.7353228330612183
			],
			"type":"VEC3"
		},
		{
			"bufferView":9,
			"componentType":5126,
			"count":3586,
			"type":"VEC3"
		}
	],
	"bufferViews":[
		{
			"buffer":0,
			"byteLength":43032,
			"byteOffset":0,
			"target":34962
		},
		{
			"buffer":0,
			"byteLength":43032,
			"byteOffset":43032,
			"target":34962
		},
		{
			"buffer":0,
			"byteLength":43008,
			"byteOffset":86064,
			"target":34963
		},
		{
			"buffer":0,
			"byteLength":43032,
			"byteOffset":129072,
			"target":34962
		},
		{
			"buffer":0,
			"byteLength":43032,
			"byteOffset":172104,
			"target":34962
		},
		{
			"buffer":0,
			"byteLength":8568,
			"byteOffset":215136,
			"target":34962
		},
		{
			"buffer":0,
			"byteLength":8568,
			"byteOffset":223704,
			"target":34962
		},
		{
			"buffer":0,
			"byteLength":6912,
			"byteOffset":232272,
			"target":34963
		},
		{
			"buffer":0,
			"byteLength":43032,
			"byteOffset":239184,
			"target":34962
		},
		{
			"buffer":0,
			"byteLength":43032,
			"byteOffset":282216,
			"target":34962
		}
	],
	"buffers":[
		{
			"byteLength":325248,
			"uri":"data:application/octet-stream;base64,"
		}
	]
}
